<svg xmlns="http://www.w3.org/2000/svg" width="38" height="38" viewBox="0 0 38 38">
  <metadata><?xpacket begin="﻿" id="W5M0MpCehiHzreSzNTczkc9d"?>
<x:xmpmeta xmlns:x="adobe:ns:meta/" x:xmptk="Adobe XMP Core 5.6-c138 79.159824, 2016/09/14-01:09:01        ">
   <rdf:RDF xmlns:rdf="http://www.w3.org/1999/02/22-rdf-syntax-ns#">
      <rdf:Description rdf:about=""/>
   </rdf:RDF>
</x:xmpmeta>
                                                                                                    
                                                                                                    
                                                                                                    
                                                                                                    
                                                                                                    
                                                                                                    
                                                                                                    
                                                                                                    
                                                                                                    
                                                                                                    
                                                                                                    
                                                                                                    
                                                                                                    
                                                                                                    
                                                                                                    
                                                                                                    
                                                                                                    
                                                                                                    
                                                                                                    
                                                                                                    
                           
<?xpacket end="w"?></metadata>
<defs>
    <style>
      .cls-1 {
        fill: #7f8e99;
        fill-rule: evenodd;
      }
    </style>
  </defs>
  <path id="Color_Fill_3_copy_3" data-name="Color Fill 3 copy 3" class="cls-1" d="M19,38A19,19,0,1,0,0,19,19,19,0,0,0,19,38Zm10.369-8.632a2.155,2.155,0,0,1-3.049,0l-3.94-3.94a2.124,2.124,0,0,1-2.529-.372c-0.014-.014-0.023-0.03-0.036-0.044a9.366,9.366,0,1,1,5.2-5.2c0.014,0.013.03,0.022,0.044,0.036a2.148,2.148,0,0,1,.372,2.529l3.94,3.94A2.155,2.155,0,0,1,29.369,29.368ZM16.344,9.875a6.469,6.469,0,1,0,6.469,6.469A6.476,6.476,0,0,0,16.344,9.875Zm0,2.875a3.6,3.6,0,0,0-3.594,3.594,0.719,0.719,0,1,1-1.437,0,5.037,5.037,0,0,1,5.031-5.031A0.719,0.719,0,1,1,16.344,12.75Z"/>
</svg>
