<svg xmlns="http://www.w3.org/2000/svg" width="38" height="38" viewBox="0 0 38 38">
  <metadata><?xpacket begin="﻿" id="W5M0MpCehiHzreSzNTczkc9d"?>
<x:xmpmeta xmlns:x="adobe:ns:meta/" x:xmptk="Adobe XMP Core 5.6-c138 79.159824, 2016/09/14-01:09:01        ">
   <rdf:RDF xmlns:rdf="http://www.w3.org/1999/02/22-rdf-syntax-ns#">
      <rdf:Description rdf:about=""/>
   </rdf:RDF>
</x:xmpmeta>
                                                                                                    
                                                                                                    
                                                                                                    
                                                                                                    
                                                                                                    
                                                                                                    
                                                                                                    
                                                                                                    
                                                                                                    
                                                                                                    
                                                                                                    
                                                                                                    
                                                                                                    
                                                                                                    
                                                                                                    
                                                                                                    
                                                                                                    
                                                                                                    
                                                                                                    
                                                                                                    
                           
<?xpacket end="w"?></metadata>
<defs>
    <style>
      .cls-1 {
        fill: #7f8e99;
        fill-rule: evenodd;
      }
    </style>
  </defs>
  <path id="Color_Fill_3_copy_5" data-name="Color Fill 3 copy 5" class="cls-1" d="M19,38A19,19,0,1,0,0,19,19,19,0,0,0,19,38Zm0-8A11,11,0,1,1,30,19,11.012,11.012,0,0,1,19,30Zm0-19.216A8.216,8.216,0,1,0,27.216,19,8.226,8.226,0,0,0,19,10.784ZM17.86,24.159H17.2V22.412h0.66V19.44H17.209V17.693H20.14v4.719H20.8v1.747H17.86Zm0.974-7.7a1.307,1.307,0,1,1,1.307-1.306A1.306,1.306,0,0,1,18.834,16.454Z"/>
</svg>
