<svg width="22" height="26" viewBox="0 0 22 26" fill="none" xmlns="http://www.w3.org/2000/svg">
<path d="M5.17 6.04041L11.022 1.42556e-06L16.83 6.0404L12.936 6.0404L12.936 15.0791L9.064 15.0791L9.064 6.0404L5.17 6.04041ZM16.434 9.6734L18.788 7.35354C20.9293 9.62963 22 12.0954 22 14.7508C22 17.9169 20.9477 20.5833 18.843 22.75C16.7383 24.9167 14.1093 26 10.956 26C8.976 26 7.14267 25.5039 5.456 24.5118C3.76933 23.5196 2.43833 22.181 1.463 20.4958C0.487666 18.8106 -3.94138e-07 16.9832 -4.80236e-07 15.0135C-5.97585e-07 12.3288 1.08533 9.78283 3.256 7.37542L5.588 9.6734C4.06267 11.3367 3.3 13.1094 3.3 14.9916C3.3 17.1655 4.06267 19.0003 5.588 20.4958C7.11333 21.9913 8.976 22.7391 11.176 22.7391C13.2293 22.7391 14.9967 21.9694 16.478 20.4301C17.9593 18.8909 18.7 17.0853 18.7 15.0135C18.7 13.1021 17.9447 11.3221 16.434 9.6734Z" fill="white"/>
</svg>
