<svg xmlns="http://www.w3.org/2000/svg" width="38" height="38" viewBox="0 0 38 38">
  <metadata><?xpacket begin="﻿" id="W5M0MpCehiHzreSzNTczkc9d"?>
<x:xmpmeta xmlns:x="adobe:ns:meta/" x:xmptk="Adobe XMP Core 5.6-c138 79.159824, 2016/09/14-01:09:01        ">
   <rdf:RDF xmlns:rdf="http://www.w3.org/1999/02/22-rdf-syntax-ns#">
      <rdf:Description rdf:about=""/>
   </rdf:RDF>
</x:xmpmeta>
                                                                                                    
                                                                                                    
                                                                                                    
                                                                                                    
                                                                                                    
                                                                                                    
                                                                                                    
                                                                                                    
                                                                                                    
                                                                                                    
                                                                                                    
                                                                                                    
                                                                                                    
                                                                                                    
                                                                                                    
                                                                                                    
                                                                                                    
                                                                                                    
                                                                                                    
                                                                                                    
                           
<?xpacket end="w"?></metadata>
<defs>
    <style>
      .cls-1 {
        fill: #7f8e99;
        fill-rule: evenodd;
      }
    </style>
  </defs>
  <path id="Color_Fill_3_copy_4" data-name="Color Fill 3 copy 4" class="cls-1" d="M19,38A19,19,0,1,0,0,19,19,19,0,0,0,19,38Zm7.875-23.571H11.125A1.134,1.134,0,0,1,10,13.286V12.143A1.134,1.134,0,0,1,11.125,11h15.75A1.134,1.134,0,0,1,28,12.143v1.143A1.134,1.134,0,0,1,26.875,14.429Zm0,11.429h0A1.134,1.134,0,0,1,25.75,27H12.25a1.134,1.134,0,0,1-1.125-1.143V15.571h15.75V25.857Zm-5.625-8h-4.5a0.572,0.572,0,0,0,0,1.143h4.5A0.572,0.572,0,0,0,21.25,17.857Z"/>
</svg>
