<svg xmlns="http://www.w3.org/2000/svg" width="13" height="12" viewBox="0 0 13 12">
  <metadata><?xpacket begin="﻿" id="W5M0MpCehiHzreSzNTczkc9d"?>
<x:xmpmeta xmlns:x="adobe:ns:meta/" x:xmptk="Adobe XMP Core 5.6-c138 79.159824, 2016/09/14-01:09:01        ">
   <rdf:RDF xmlns:rdf="http://www.w3.org/1999/02/22-rdf-syntax-ns#">
      <rdf:Description rdf:about=""/>
   </rdf:RDF>
</x:xmpmeta>
                                                                                                    
                                                                                                    
                                                                                                    
                                                                                                    
                                                                                                    
                                                                                                    
                                                                                                    
                                                                                                    
                                                                                                    
                                                                                                    
                                                                                                    
                                                                                                    
                                                                                                    
                                                                                                    
                                                                                                    
                                                                                                    
                                                                                                    
                                                                                                    
                                                                                                    
                                                                                                    
                           
<?xpacket end="w"?></metadata>
<defs>
    <style>
      .cls-1 {
        fill: #f68b1f;
        fill-rule: evenodd;
      }
    </style>
  </defs>
  <path id="Forma_1" data-name="Forma 1" class="cls-1" d="M12.632,8.6l-4.269-7.5a2.138,2.138,0,0,0-3.73,0L0.289,8.724a2.211,2.211,0,0,0,0,2.184A2.148,2.148,0,0,0,2.153,12h8.693A2.169,2.169,0,0,0,13,9.816,2.191,2.191,0,0,0,12.632,8.6Zm-5.212.73a0.92,0.92,0,0,1-1.839,0V9.3a0.92,0.92,0,0,1,1.839,0V9.326ZM7.441,3.183L6.986,7.213a0.486,0.486,0,0,1-.971,0L5.559,3.181a0.443,0.443,0,0,1,.422-0.547H7.016A0.447,0.447,0,0,1,7.441,3.183Z"/>
</svg>
